<svg id="Group_972" data-name="Group 972" xmlns="http://www.w3.org/2000/svg" xmlns:xlink="http://www.w3.org/1999/xlink" width="55.596" height="22.287" viewBox="0 0 55.596 22.287">
  <defs>
    <clipPath id="clip-path">
      <rect id="Rectangle_214" data-name="Rectangle 214" width="55.596" height="22.287" fill="#9e9e9e"/>
    </clipPath>
  </defs>
  <g id="Group_971" data-name="Group 971" clip-path="url(#clip-path)">
    <path id="Path_2922" data-name="Path 2922" d="M435.6,114.854v.213a.354.354,0,0,0,.354.354h.271a.354.354,0,0,0,.354-.354v-.213a.354.354,0,0,0-.354-.354h-.271a.354.354,0,0,0-.354.354" transform="translate(-380.985 -100.144)" fill="#9e9e9e"/>
    <path id="Path_2923" data-name="Path 2923" d="M184.235,58.449h-.378a.354.354,0,0,0-.354.354v7.224a.354.354,0,0,0,.354.354h1.326a.354.354,0,0,0,.354-.354v-.247a.354.354,0,0,0-.354-.354h-.24a.354.354,0,0,1-.354-.354V62.095a.354.354,0,0,1,.354-.354h1a.354.354,0,0,0,.354-.354V61.14a.354.354,0,0,0-.354-.354h-1a.354.354,0,0,1-.354-.354V58.8a.354.354,0,0,0-.354-.354" transform="translate(-160.495 -51.121)" fill="#9e9e9e"/>
    <path id="Path_2924" data-name="Path 2924" d="M214.205,76.062a2.588,2.588,0,0,0-2.042.858,3.265,3.265,0,0,0-.756,2.237,2.837,2.837,0,0,0,.782,2.042,2.714,2.714,0,0,0,2.058.818,2.421,2.421,0,0,0,1.74-.632.356.356,0,0,0-.088-.576l-.294-.145a.358.358,0,0,0-.411.072,1.268,1.268,0,0,1-.927.366,1.522,1.522,0,0,1-1.6-1.12.356.356,0,0,1,.339-.464h3.541a.354.354,0,0,0,.354-.354v-.007a3.383,3.383,0,0,0-.72-2.221,2.422,2.422,0,0,0-1.976-.874m-1.191,2.551a.357.357,0,0,1-.337-.472,1.868,1.868,0,0,1,.426-.706,1.458,1.458,0,0,1,1.091-.459,1.336,1.336,0,0,1,1.049.453,1.888,1.888,0,0,1,.392.722.357.357,0,0,1-.34.461Z" transform="translate(-184.9 -66.525)" fill="#9e9e9e"/>
    <path id="Path_2925" data-name="Path 2925" d="M293.054,76.062a2.588,2.588,0,0,0-2.042.858,3.265,3.265,0,0,0-.756,2.237,2.837,2.837,0,0,0,.782,2.042,2.714,2.714,0,0,0,2.058.818,2.421,2.421,0,0,0,1.74-.632.356.356,0,0,0-.088-.576l-.294-.145a.358.358,0,0,0-.411.072,1.268,1.268,0,0,1-.927.366,1.522,1.522,0,0,1-1.6-1.12.356.356,0,0,1,.339-.464H295.4a.354.354,0,0,0,.354-.354v-.007a3.383,3.383,0,0,0-.72-2.221,2.422,2.422,0,0,0-1.976-.874m-1.191,2.551a.357.357,0,0,1-.337-.472,1.869,1.869,0,0,1,.426-.706,1.458,1.458,0,0,1,1.091-.459,1.336,1.336,0,0,1,1.049.453,1.888,1.888,0,0,1,.392.722.357.357,0,0,1-.34.461Z" transform="translate(-253.863 -66.525)" fill="#9e9e9e"/>
    <path id="Path_2926" data-name="Path 2926" d="M262.6,77.825v4.768a.354.354,0,0,0,.354.354h.4a.354.354,0,0,0,.354-.354V78.715a.354.354,0,0,1,.354-.354h1.408a.354.354,0,0,0,.354-.354v-.279a.354.354,0,0,0-.354-.354h-2.422a.452.452,0,0,0-.452.452" transform="translate(-229.675 -67.672)" fill="#9e9e9e"/>
    <path id="Path_2927" data-name="Path 2927" d="M341.361,77.854v4.739a.354.354,0,0,0,.354.354h.4a.354.354,0,0,0,.354-.354V78.715a.354.354,0,0,1,.354-.354h2.032a.354.354,0,0,1,.354.354v3.878a.354.354,0,0,0,.354.354h.4a.354.354,0,0,0,.354-.354V77.87a.5.5,0,0,0-.5-.5h-3.985a.481.481,0,0,0-.481.481" transform="translate(-298.561 -67.672)" fill="#9e9e9e"/>
    <path id="Path_2928" data-name="Path 2928" d="M395.934,78.148v-.421a.353.353,0,0,0-.353-.354h-4.107a.267.267,0,0,0-.267.267v.388a.27.27,0,0,0,.27.27h2.347a.354.354,0,0,1,.262.593l-2.8,3.059a.286.286,0,0,0-.075.193v.452a.354.354,0,0,0,.354.354h4.019a.354.354,0,0,0,.354-.354v-.208a.354.354,0,0,0-.354-.354h-2.232a.354.354,0,0,1-.262-.593l2.746-3.03a.389.389,0,0,0,.1-.26" transform="translate(-342.158 -67.672)" fill="#9e9e9e"/>
    <path id="Path_2929" data-name="Path 2929" d="M46.9,60.968a1.078,1.078,0,0,0-1.864-.477,1.094,1.094,0,0,1-.819.4H42.557a1.236,1.236,0,0,1-.728-.241.657.657,0,0,0-.786.009,1.153,1.153,0,0,1-.7.231H38.375a1.887,1.887,0,0,1-1-.329.617.617,0,0,0-.332-.1.627.627,0,1,0,.3,1.176,2.006,2.006,0,0,1,.972-.286h1.9a1.288,1.288,0,0,1,.772.31l.036.035a.624.624,0,0,1,.192.451v.819a1.2,1.2,0,0,1-.384.847.864.864,0,0,0,0,1.227,1.2,1.2,0,0,1,.384.847v1.437a1.331,1.331,0,0,1-.26.828.616.616,0,0,0,0,.762,1.331,1.331,0,0,1,.26.828V71.8A1.317,1.317,0,0,1,40.7,72.81a1.164,1.164,0,1,0,1.494.014,1.41,1.41,0,0,1-.523-1.064V69.73a1.32,1.32,0,0,1,.251-.815.618.618,0,0,0,0-.758,1.32,1.32,0,0,1-.251-.815V65.89a1.2,1.2,0,0,1,.385-.847.864.864,0,0,0,0-1.228,1.2,1.2,0,0,1-.385-.847v-.782a.961.961,0,0,1,.439-.673,1.64,1.64,0,0,1,.789-.158h1.131a1.2,1.2,0,0,1,.952.5,1.071,1.071,0,0,0,.856.426A1.082,1.082,0,0,0,46.9,60.968" transform="translate(-31.846 -52.584)" fill="#9e9e9e"/>
    <path id="Path_2930" data-name="Path 2930" d="M5.781,40.643a1.251,1.251,0,0,1-.257-.8V36.7a1.063,1.063,0,0,1,.254-.658.61.61,0,0,0-.59-.98.611.611,0,0,0-.375.971,1.329,1.329,0,0,1,.245.811v3.5a.175.175,0,0,1-.233.105L1.444,38.49a.375.375,0,0,1-.162-.214.458.458,0,0,0-.11-.178.341.341,0,0,1-.109-.239V34.355a1.153,1.153,0,0,1,.282-.721.661.661,0,0,0,0-.832,1.405,1.405,0,0,1-.282-.889v-2.3a.875.875,0,0,1,.291-.66.8.8,0,0,0,.276-.607c0-.013,0-.026,0-.039l0,0a.255.255,0,0,1,.033-.182.305.305,0,0,1,.068-.067l2.233-1.318a1.444,1.444,0,0,1,.81-.224.619.619,0,0,0,.244-.035.6.6,0,0,0,.383-.415.612.612,0,0,0-.622-.769.619.619,0,0,0-.447.252.676.676,0,0,0-.1.169,1.063,1.063,0,0,1-.437.549l-1.931,1.14a1.152,1.152,0,0,1-.86.146.8.8,0,0,0-.382,0,.817.817,0,0,0-.612.64.807.807,0,0,0,.22.72,1.194,1.194,0,0,1,.319.845v2.183a1.534,1.534,0,0,1-.271.895.663.663,0,0,0,.011.785,1.164,1.164,0,0,1,.26.7v3.449a1.045,1.045,0,0,1-.124.458.456.456,0,0,0-.038.285.478.478,0,0,0,.478.374H.926a.945.945,0,0,1,.4.107l3.239,1.87a.25.25,0,0,1,.126.131.306.306,0,0,1,.015.093l0-.006a.605.605,0,0,0,.766.531.6.6,0,0,0,.418-.415.606.606,0,0,0-.114-.552" transform="translate(0 -22.125)" fill="#9e9e9e"/>
    <path id="Path_2931" data-name="Path 2931" d="M112.038,82.293a.578.578,0,0,0-1.095-.062v0a1.081,1.081,0,0,1-.405.5l-.1.059h0l-2.412,1.424a1.327,1.327,0,0,1-.843.147.755.755,0,0,0-.28.02.747.747,0,0,0,.1,1.463.759.759,0,0,0,.669-.314.871.871,0,0,0,.113-.184,2.26,2.26,0,0,1,.941-1.007l1.85-1.092a1.718,1.718,0,0,1,.9-.212h0a.581.581,0,0,0,.56-.734" transform="translate(-93.013 -71.603)" fill="#9e9e9e"/>
    <path id="Path_2932" data-name="Path 2932" d="M78.349,5.979a.654.654,0,0,0-.43-.44.7.7,0,0,0-.27-.03,1.566,1.566,0,0,1-.906-.232L74.43,3.94a1.1,1.1,0,0,1-.357-.419h0a.7.7,0,0,0-.69-.587.669.669,0,0,0-.1.007,1.416,1.416,0,0,1-.985-.232l-1.7-.982a1.134,1.134,0,0,1-.528-.8A1.134,1.134,0,0,0,69.8.4a1.056,1.056,0,0,0-.824-.4,1.078,1.078,0,1,0,.338,2.112,1.449,1.449,0,0,1,1.148.1l1.586.916a1.56,1.56,0,0,1,.677.729.778.778,0,0,0,.124.2.709.709,0,0,0,.588.278l.016,0a1.615,1.615,0,0,1,.986.177l1.77,1.022a2.221,2.221,0,0,1,.892.893.81.81,0,0,0,.085.132.657.657,0,0,0,1.163-.581" transform="translate(-59.411 0)" fill="#9e9e9e"/>
    <path id="Path_2933" data-name="Path 2933" d="M115.1,119.969a1.1,1.1,0,0,0-.926.63,1.064,1.064,0,0,0-.082.226,1.778,1.778,0,0,1-.864,1.105l-1.842,1.063h0a1.965,1.965,0,0,1-.637.219v0a.39.39,0,1,0,.324.657,2.693,2.693,0,0,1,.587-.5l2.047-1.182a1.467,1.467,0,0,1,1.14-.113,1.091,1.091,0,0,0,.467.026,1.074,1.074,0,0,0-.216-2.134" transform="translate(-96.56 -104.926)" fill="#9e9e9e"/>
  </g>
</svg>
