<svg xmlns="http://www.w3.org/2000/svg" xmlns:xlink="http://www.w3.org/1999/xlink" width="160.815" height="35" viewBox="0 0 160.815 35">
  <defs>
    <clipPath id="clip-path">
      <rect id="Rectangle_213" data-name="Rectangle 213" width="160.815" height="35" fill="#e4e4e4"/>
    </clipPath>
  </defs>
  <g id="Group_970" data-name="Group 970" transform="translate(0 0)">
    <g id="Group_969" data-name="Group 969" transform="translate(0 0)" clip-path="url(#clip-path)">
      <path id="Path_2865" data-name="Path 2865" d="M5.209,21.282c-.108.055-.217.055-.271.163a.388.388,0,0,0-.055.6.261.261,0,0,0,.325.108c.108,0,.216,0,.271-.108a.433.433,0,0,0-.271-.759" transform="translate(1.022 4.562)" fill="#e4e4e4"/>
      <path id="Path_2866" data-name="Path 2866" d="M17.553,0H17.5a17.5,17.5,0,1,0,0,35h.053a17.5,17.5,0,0,0,0-35M17.5,34.513A17.012,17.012,0,1,1,34.512,17.5,17.042,17.042,0,0,1,17.5,34.513" transform="translate(0 0.001)" fill="#e4e4e4"/>
      <path id="Path_2867" data-name="Path 2867" d="M3.327,10.1A.7.7,0,0,0,3,10.043a.93.93,0,0,0-.65.108.86.86,0,0,0-.379.487c-.109.271-.109.759.7,1.03.108,0,.216.055.324.055a.963.963,0,0,0,1.084-.65.856.856,0,0,0-.055-.488,1.175,1.175,0,0,0-.7-.488" transform="translate(0.412 2.148)" fill="#e4e4e4"/>
      <path id="Path_2868" data-name="Path 2868" d="M5.695,22.085a.117.117,0,0,1-.108.108c0,.053,0,.053-.055.053.108.109.163.217.217.272l.053.055.217-.163-.271-.272Z" transform="translate(1.186 4.734)" fill="#e4e4e4"/>
      <path id="Path_2869" data-name="Path 2869" d="M19.468,25.8a.44.44,0,0,0,.163-.542.408.408,0,0,0-.38-.271.2.2,0,0,0-.162.053.375.375,0,0,0-.163.542.337.337,0,0,0,.324.217Z" transform="translate(4.045 5.356)" fill="#e4e4e4"/>
      <path id="Path_2870" data-name="Path 2870" d="M23.168,6.071h.163a1.165,1.165,0,0,0,.325-.216.617.617,0,0,0,.162-.434c0-.108,0-.217-.107-.271L23.6,5.042h-.055l-.216.216-.434.487h-.055a.741.741,0,0,1,.163.217c.109.053.109.108.163.108" transform="translate(4.896 1.081)" fill="#e4e4e4"/>
      <path id="Path_2871" data-name="Path 2871" d="M17.376.58a16.8,16.8,0,1,0,16.8,16.8A16.811,16.811,0,0,0,17.376.58m14.14,9.428V9.954c.055-.055.109,0,.109.055l.162.379.109.108.108.217c0,.053,0,.108-.055.108,0,.053-.053,0-.053-.055l-.055-.053a.1.1,0,0,0-.162,0c-.109,0-.217.053-.651.271l-.488.271c-.271.108-.542.216-.65.271-.055.055-.108.108-.055.163l.055.163v.108h-.055l-.053-.055-.163-.324-.053-.164-.055-.108-.109-.216a.075.075,0,0,1,0-.108h.055l.055.053.055.055c0,.055.053.055.108,0a1.5,1.5,0,0,0,.65-.271l.542-.216.6-.325c.108-.055.108-.108.108-.163Zm-2.383-.325a.638.638,0,0,0,.216-.542l.053-.217a.888.888,0,0,1,.325-.812.688.688,0,0,1,.975.271,3.172,3.172,0,0,1,.217.38.168.168,0,0,1-.055.108l-.325.163c0,.053-.053.108-.108.053,0-.053,0-.053.055-.108a.705.705,0,0,0,.108-.163.5.5,0,0,0-.055-.379c-.108-.109-.162-.163-.271-.163a.328.328,0,0,0-.216.053c-.108.055-.163.163-.163.543v.108c-.055.487-.108.7-.379.92a.82.82,0,0,1-.651.055.84.84,0,0,1-.432-.325,1.866,1.866,0,0,1-.217-.487.115.115,0,0,1,.108-.108l.325-.217a.167.167,0,0,1,.108-.053l.055.053-.055.055c-.055.053-.108.053-.108.108a.406.406,0,0,0,0,.542.389.389,0,0,0,.488.163M27.507,6.216,28,5.728a.415.415,0,0,0,.053-.217L27.941,5.4l-.055-.053h.055V5.294c.055,0,.055.055.108.055l.055.108.162.108.055.108L28.645,6a.717.717,0,0,1,.324.542c.055.055.055.271-.162.488a.918.918,0,0,1-.7.216h-.055L28,7.407c0,.325-.055.65-.055.867v.053a.524.524,0,0,0,.108.38l.055.055v.053l-.055.055L28,8.816,27.778,8.6a1.171,1.171,0,0,1-.217-.325V7.623l.055-.271.055-.271-.217-.216V6.92a2,2,0,0,0-.487.487c-.055.055-.055.055-.055.108V7.57l.108.108v.108l-.108-.053-.216-.217-.109-.108-.053-.055-.217-.216-.053-.055.053-.053.055.053.108.055c.055,0,.055,0,.163-.055l.488-.487ZM25.394,4.59c.271-.434.325-.487.325-.6a.1.1,0,0,0,0-.162l-.055-.109-.055-.053c0-.055.055,0,.109,0l.216.163.163.108c.055.053.6.379.65.434l.108.053h.055c.055.055.055.055.055.109h-.055L26.8,4.7l-.055.055-.053.108h-.109V4.753L26.64,4.7V4.643c0-.053,0-.107-.108-.162-.055-.055-.325-.217-.379-.271l-.434.7c.216.163.379.271.379.271.108.053.108.053.163.053h.108v.055l-.055.055s-.108.108-.108.162l-.108.163c-.055,0-.055.055-.108,0a.053.053,0,0,1-.055-.053h.055V5.51c.053,0,.053,0,.053-.053,0,0-.053-.055-.108-.108a2.25,2.25,0,0,0-.379-.271l-.108.216-.109.108-.163.325c-.053.055-.108.108-.108.163s.108.108.271.216c.055.055.163.109.217.163.108,0,.163-.053.271-.108a.053.053,0,0,1,.053-.055l.055.055-.055.055c-.053.053-.162.216-.216.271-.108.053-.108.053-.216,0l-.542-.38-.217-.163-.108-.053-.217-.163-.053-.055V5.62h.108l.108.053c.055.055.055,0,.108-.053a3.352,3.352,0,0,0,.434-.6Zm-2.98-2.438V2.1c.055,0,.055,0,.108.053l.271.108.163.055.108.055.271.108.055.055v.053a.074.074,0,0,1-.108,0,.077.077,0,0,0-.109,0c-.053.055-.053.109-.053.271,0,0-.055,1.409-.055,1.518a4.4,4.4,0,0,1,.434-.488l.759-.7a.19.19,0,0,1,.055-.108V3.018L24.2,2.965a.054.054,0,0,1-.055-.055c0-.055.108-.055.108,0l.271.108h.055l.108.055.163.055c.055,0,.108.053.055.108h-.055c-.055,0-.108-.055-.163,0-.055,0-.108,0-.271.162l-.38.38-.324.271-.759.759H22.9c-.109.108-.163.162-.217.162-.053-.053-.053-.108-.053-.271l.053-2.113c0-.216-.053-.216-.108-.325l-.108-.053h-.055Zm-2.33,1.842h.163c.055,0,.109,0,.109-.108.053-.108.108-.379.216-.65l.108-.6.163-.651c0-.108,0-.162-.055-.162l-.108-.055h-.053V1.664h.108l.379.108.163.055.217.053c.053,0,.108,0,.108.055l-.055.053h-.108c-.108,0-.108,0-.163.109l-.163.65-.108.6a2.206,2.206,0,0,0-.163.65c0,.109,0,.163.055.163l.163.055.053.053s0,.055-.108.055l-.325-.108h-.162l-.109-.055L20.138,4.1l-.055-.055Zm-3.52-.271a.187.187,0,0,1,.108-.053h.108c.055,0,.108-.109.108-.38L17,1.394c0-.055,0-.109.055-.109s.108,0,.108.055l.055.055s.488.542.92,1.083l.488.488s.163.163.163.216c0-.271.055-1.409.055-1.409V1.718A.281.281,0,0,0,18.73,1.5h-.163a.053.053,0,0,1-.053-.055V1.394h.812c.053,0,.108,0,.108.053V1.5h-.108l-.055.055c-.108,0-.108.053-.108.216l-.163,2c0,.055,0,.163-.055.163a.116.116,0,0,1-.107-.108l-.488-.543-.434-.434a6.221,6.221,0,0,1-.65-.758.054.054,0,0,1-.055-.055V3.4c0,.217.055.272.055.272a.2.2,0,0,0,.162.053h.055l.055.055c0,.055-.109.055-.109.055L17.1,3.777h-.542ZM12.987,1.935a.054.054,0,0,1,.055-.055l.324-.053h.163l.163-.055.216-.055c.055,0,.109,0,.109.055a.054.054,0,0,1-.055.055h-.108c-.055.053-.055.108-.055.216l.108.651.109.434c.108.487.216.65.379.7a.341.341,0,0,0,.379.053.647.647,0,0,0,.434-.216,1.374,1.374,0,0,0,0-.814l-.055-.379-.162-.7c0-.108-.055-.108-.163-.108h-.163V1.61a.053.053,0,0,1,.055-.053L15.1,1.5h.108l.271-.108h.055v.053c.053.055-.055.055-.055.055l-.053.055c-.109,0-.109.053-.109.162l.163.651.055.379a1.383,1.383,0,0,1-.108,1.03.941.941,0,0,1-.651.325.955.955,0,0,1-.758-.055,1.073,1.073,0,0,1-.434-.812L13.475,2.8a4.719,4.719,0,0,0-.163-.7c0-.109-.055-.109-.109-.109h-.216ZM9.628,3.344l.324-.163.163-.108.217-.108h.108v.053a.054.054,0,0,1-.055.055l-.053.055a.053.053,0,0,0-.055.053v.108c.055.108.108.217.325.651l.271.487c.163.271.271.488.325.6.053.055.108.108.163.055l.162-.055h.055c.053.055.053.055,0,.108l-.325.163-.163.055-.108.108-.216.108h-.109c0-.055,0-.055.055-.108l.055-.055c.053,0,.053-.053,0-.163s-.163-.324-.271-.6l-.271-.54-.325-.6C9.844,3.4,9.79,3.4,9.736,3.452H9.628c-.055.055-.055.055-.108,0,0-.055.053-.055.108-.108M7.19,5.023a.054.054,0,0,1,.055-.055l.216-.216L7.623,4.7l.325-.271.324-.216L8.328,4.1h.055V4.048h.053V4.1H8.49l.053.162.055.055.055.108a.077.077,0,0,1,0,.109A.054.054,0,0,1,8.6,4.482c-.055,0-.055-.055-.108-.055s-.055-.053-.217.055c-.053,0-.216.162-.324.216v.055l.434.65h.053c.271-.216.38-.324.38-.324.053-.055.108-.055.108-.109V4.861h.053v.055h.055l.108.163.109.216V5.4H9.195L9.14,5.349l-.053-.055a.1.1,0,0,0-.163,0c-.055.055-.325.216-.38.271l.163.217.055.108.216.271c.109.163.163.163.434,0l.217-.217a.244.244,0,0,0,0-.271c-.055,0-.055-.053,0-.053V5.565l.053.055c.055.053.163.271.217.324.053.109,0,.109-.109.217l-.54.379-.163.108-.163.109-.163.163H8.653a.076.076,0,0,1,0-.109l.108-.053c0-.055,0-.055-.055-.163a5.126,5.126,0,0,0-.379-.542L8,5.565c-.053,0-.053,0-.053-.055a2.949,2.949,0,0,1-.38-.487.2.2,0,0,0-.163-.055L7.3,5.078H7.19ZM5.836,6.216a1.717,1.717,0,0,1,.379-.325h.053l.055.053.217.217a.169.169,0,0,1,.053.108v.055H6.485c0-.055-.108-.108-.163-.108a.452.452,0,0,0-.379.162.413.413,0,0,0-.108.271c0,.055.053.109.108.163.108.109.216.163.542.055h.108a1.067,1.067,0,0,1,.975.216.522.522,0,0,1,.217.488v.108a1.112,1.112,0,0,1-.271.488.843.843,0,0,1-.38.271.1.1,0,0,1-.162,0L6.7,8.111c-.053,0-.108-.055-.053-.108,0-.055.053-.055.108,0,0,.053.055.053.108.108A.553.553,0,0,0,7.406,8a.4.4,0,0,0,.109-.325.214.214,0,0,0-.109-.216C7.3,7.352,7.19,7.3,6.864,7.352H6.7a1.189,1.189,0,0,1-.92-.162.618.618,0,0,1-.163-.434.594.594,0,0,1,.217-.542M3.18,9.791c0-.055.055-.055.109-.055h.053l1.409-.324L5.4,9.3a.915.915,0,0,0,.271-.109c-.216-.108-1.192-.7-1.192-.7a.729.729,0,0,0-.271-.053c-.055.053-.055.108-.108.163,0,0-.055.053-.055,0H3.994c0-.055,0-.055.053-.109l.163-.216.055-.108V8.111L4.427,7.9c0-.055.053-.109.053-.055.055,0,.055,0,.055.055v.053L4.48,8v.053c0,.055,0,.109.163.164L6.323,9.3c.055.053.108.053.108.108l-.053.053a.191.191,0,0,1-.109.055l-.7.163-.6.163a6.9,6.9,0,0,0-.975.216H3.939c.108.055,1.084.651,1.084.651.27.108.324.108.379.053a.186.186,0,0,0,.055-.108L5.51,10.6h.053a.074.074,0,0,1,0,.108l-.162.271-.055.108-.163.271-.055.053H5.077v-.108L5.13,11.2c0-.053-.053-.108-.271-.271L3.235,9.9,3.18,9.845Zm.055,12.191a.5.5,0,0,1-.542-.488.542.542,0,0,1,.542-.542.535.535,0,0,1,.488.542.487.487,0,0,1-.488.488m.7-6.394v.325l-.053.163v.379c0,.053,0,.053-.055.108H3.776v-.216c0-.055-.108-.055-.163-.055l-.324-.055-.271-.053c-.163,0-.217.053-.325.053-.055.055-.759.38-.975.488a.763.763,0,0,0-.217.163.2.2,0,0,0-.053.163.053.053,0,0,1-.055.053c-.053,0-.053,0-.053-.108v-.108l.053-.271v-.325l.055-.108c.053,0,.053.053.053.108l.055.055a.19.19,0,0,1,.108-.055c.055,0,.6-.271.867-.379l.055-.055a3.647,3.647,0,0,0-.38-.271,3.6,3.6,0,0,1-.379-.271c-.055,0-.108-.055-.163-.055s-.053,0-.053.055l-.055.055a.054.054,0,0,1-.055-.055l.055-.325v-.379l.055-.053a.187.187,0,0,1,.053.108v.108a.575.575,0,0,0,.163.216c.108.108.812.6.922.7a.679.679,0,0,0,.324.055l.271.053h.325c.108,0,.163,0,.163-.108v-.163a.053.053,0,0,1,.055-.053h.053Zm-.65-1.354a.919.919,0,0,1-.38-.055,1.037,1.037,0,0,1-.758-.65A1.13,1.13,0,0,1,2.1,12.5a1.2,1.2,0,0,1,.6-.812,1.236,1.236,0,0,1,.6-.163,3.174,3.174,0,0,0,.379.108,1.281,1.281,0,0,1,.759.651,1.319,1.319,0,0,1,.108,1.029,1.292,1.292,0,0,1-1.246.922M5.781,28.808a20.219,20.219,0,0,0-1.409-1.625c.055-.055.542-.488.542-.488a.265.265,0,0,0,.055-.163.053.053,0,0,1,.055-.053l.324.434-.379.379,1.083,1.246c0,.055-.216.217-.271.271m1.03-.975a2.735,2.735,0,0,1-.434.434c-.055,0-.217-.217-.271-.271a.054.054,0,0,0-.055-.055l.055-.053c.108-.108.487-.434.487-.434a2.031,2.031,0,0,0-.379-.434H6.107a1.293,1.293,0,0,1-.6-.325.783.783,0,0,1,.053-1.138.7.7,0,0,1,.543-.216,1.3,1.3,0,0,1,.6.324.283.283,0,0,1,.109.217.585.585,0,0,1,.108.434,4.487,4.487,0,0,0,.434.487l.053-.053a.217.217,0,0,0,.109-.217v-.053c.053.053.379.434.379.434s-.6.542-1.083.92m3.522,3.576a3.137,3.137,0,0,0-.271-.867,3.006,3.006,0,0,1-.759.271,1.379,1.379,0,0,1-.108-.271,2.211,2.211,0,0,0,1.246-1.03c.108-.216,0-.271,0-.271,0-.053,0-.053.055-.053a5.313,5.313,0,0,1,.6.27,2.322,2.322,0,0,1-.758.868v.053a3.57,3.57,0,0,1,.379.812c-.055,0-.379.163-.379.217m.108.812c0-.053.7-1.571.7-1.571a3.194,3.194,0,0,0-.434-.216c.055,0,.163-.271.163-.325a3.182,3.182,0,0,0,.434.217l.216-.488a.163.163,0,0,0,0-.216v-.055a4.277,4.277,0,0,1,.488.216c0,.055-1.192,2.546-1.192,2.6a1.126,1.126,0,0,0-.379-.163m.975.434a1.63,1.63,0,0,0-.434-.217s1.192-2.545,1.192-2.6c0,.055.379.216.379.216h.055c-.055.055-1.192,2.548-1.192,2.6m7.261,1.03h-.488V32h-.163v1.681h-.434v-.542H16.02V31.191a.236.236,0,0,0-.053-.162v-.109h1.246V31.3h-.7v1.518h1.083V31.138c0-.108-.053-.217-.108-.217v-.053h.542v.758h.163v-.758h.488Zm3.792-2.709a.627.627,0,0,1,0-.542,2.39,2.39,0,0,0-.271.108,1.86,1.86,0,0,1-.163-.324,6.44,6.44,0,0,0,.6-.272c-.055-.108-.109-.163-.163-.108v-.055l.487-.271a.794.794,0,0,0,.108.217.165.165,0,0,0,.108-.055c.163-.053.435-.217.488-.217a2.233,2.233,0,0,0,.109.325,2.863,2.863,0,0,0-.272.163.847.847,0,0,1,.434.324A.792.792,0,0,1,23.5,31.3a.681.681,0,0,1-.325.055.654.654,0,0,1-.7-.379m2.545-.487c0,.053-.379.216-.379.216,0-.055-.6-1.247-.6-1.247-.053-.108-.163-.162-.163-.108l-.053-.053a4.709,4.709,0,0,1,.488-.271c.053.053.379.7.379.7l.379-.163s.108.271.163.271a3.194,3.194,0,0,0-.434.216Zm.109,1.3-.216-.542-1.735.812a1.8,1.8,0,0,1-.162-.325c.053,0,2.113-.975,2.113-1.029.053.053.434.866.434.866,0,.055-.38.217-.434.217m-7.694-1.679A12.759,12.759,0,1,1,30.216,17.322,12.729,12.729,0,0,1,17.429,30.108M29.024,28.7c0-.055-.271-.216-.271-.216a3,3,0,0,1,.325-.435l-.6-.432c-.053-.108-.163-.108-.163-.055h-.055v-.053s.272-.38.325-.38l.759.651.108-.217a9.2,9.2,0,0,0-.759-.6,1.605,1.605,0,0,0,.271-.379c.055.055.814.651.814.651A1.171,1.171,0,0,1,30,26.965c-.324-.271-1.517-1.191-1.517-1.191s-1.083,1.3-1.083,1.354c-.055,0-.271-.216-.271-.216,0-.055,1.409-1.734,1.409-1.734s1.354,1.138,1.733,1.463a.924.924,0,0,0,.163-.217c.055,0,.271.217.271.217s-1.679,2-1.679,2.058M30.6,13.854l.055.163v.055a.053.053,0,0,1-.055.053s-.055,0-.055-.108l-.108-.324-.053-.163v-.109l-.109-.271c0-.053,0-.053.055-.108V13.1l.055.053.053.055c0,.055.055.055.163.055s.379-.109.65-.163c0,0,1.192-.38,1.246-.38a3.775,3.775,0,0,0-.162-.432c-.055-.164-.055-.217-.163-.272h-.108a.054.054,0,1,1,0-.108c.053,0,.379-.053.379-.053.053,0,.053,0,.108.053v.108l.055.325.379,1.246c.055.109.055.216.108.216v.109h-.053l-.38.108h-.108v-.053a.054.054,0,0,1,.055-.055h.053c.055-.055.109-.109.109-.163,0-.108-.055-.163-.055-.216a3.451,3.451,0,0,1-.108-.38c-.163.055-1.247.38-1.247.38a1.827,1.827,0,0,0-.65.216.116.116,0,0,0-.108.108m.92,8.128a.486.486,0,0,1-.487-.488.534.534,0,0,1,.487-.542.543.543,0,0,1,.543.542.5.5,0,0,1-.543.488m1.9-4.822s-.053,0-.053-.108a.19.19,0,0,1-.055-.108c-.055-.055-.108-.109-.163-.163a4.737,4.737,0,0,0-1.083-.488.686.686,0,0,0-.325-.055,2.36,2.36,0,0,1-.271.055l-.271.055c-.108,0-.163.053-.163.108v.216h-.055a.052.052,0,0,1-.053-.053v-.38l-.055-.108v-.163l-.055-.271s0-.108.055-.108l.055.055V15.7l.053.108c0,.055.109.055.163.055l.325-.055h.271A.317.317,0,0,0,32,15.7a5.9,5.9,0,0,0,.867-.65c.108-.055.216-.163.216-.216a.169.169,0,0,0,.055-.109c0-.108,0-.108.055-.108l.053.108V15.1l.055.109v.324H33.25a.052.052,0,0,1-.053-.053v-.055h-.055a.165.165,0,0,0-.108.055,7.259,7.259,0,0,0-.759.542.053.053,0,0,0-.053.055c.053,0,.216.108.379.162a2.63,2.63,0,0,0,.487.217h.163A.054.054,0,0,0,33.3,16.4a.053.053,0,0,1,.055-.053l.053.053v.325l.055.325c0,.053,0,.108-.055.108" transform="translate(0.124 0.125)" fill="#e4e4e4"/>
      <path id="Path_2872" data-name="Path 2872" d="M7.54,16.116a13.534,13.534,0,0,0,2.546,5.418l5.8-5.852,5.851,5.852a14.112,14.112,0,0,0,2.493-5.418,43.254,43.254,0,0,0-16.688,0" transform="translate(1.616 3.281)" fill="#e4e4e4"/>
      <path id="Path_2873" data-name="Path 2873" d="M15.941,5.443C12.311,8.423,7.273,8.26,7.273,8.26v6.231a19.463,19.463,0,0,0,.216,3.2,43.839,43.839,0,0,1,8.452-.812,43.016,43.016,0,0,1,8.452.812,15.535,15.535,0,0,0,.272-3.2V8.26a14.706,14.706,0,0,1-8.724-2.817m-6.23,6.23c.053-.053.108-.053.324,0a1.2,1.2,0,0,0,.488.109.167.167,0,0,0,.053.108v.975s0,.108-.053.108a2.054,2.054,0,0,1-.434-.053c-.109-.055-.271-.217-.379-.109Zm-1.03.217a.192.192,0,0,1,.053-.108,1.59,1.59,0,0,0,.488-.109c.216-.053.271-.053.325,0V12.81c-.109-.108-.271.055-.434.109a1.454,1.454,0,0,1-.38.053c-.053,0-.053-.108-.053-.108Zm2.113,1.517-.867-.162a.271.271,0,0,0-.163.053s0,.108-.163.108a.106.106,0,0,1-.108-.108.271.271,0,0,0-.163-.053l-.92.162c-.055,0-.055-.108-.055-.108l.055-1.138a.192.192,0,0,1,.053-.108.19.19,0,0,0,.055-.108h.055V12l-.055,1.03a.106.106,0,0,0,.108.108.862.862,0,0,0,.488-.053.758.758,0,0,0,.216-.109c.053,0,.217-.108.271.163.109-.271.271-.163.325-.163a.758.758,0,0,0,.216.109.862.862,0,0,0,.488.053c.053,0,.053-.108.053-.108V11.945h.055a.19.19,0,0,0,.055.108.19.19,0,0,1,.055.108L10.9,13.3a.106.106,0,0,1-.108.108m5.146,2.872a4.064,4.064,0,1,1,4.118-4.063,4.093,4.093,0,0,1-4.118,4.063m6.5-2.709-.108.325v.379a.116.116,0,0,1-.108.108h-.109c-.053,0-.053-.053-.053-.108v-.379l-.163-.325c-.055-.108.055-.108.055-.108h.487s.055,0,0,.108m.108-.271a.052.052,0,0,1-.053.053h-.651a.052.052,0,0,1-.053-.053l-.055-.108c-.055-.108.055-.055.055-.055h.758s.108-.053.055.055Zm.217-.379a.192.192,0,0,1-.109.053h-.975a.052.052,0,0,1-.053-.053l-.108-.163c-.055-.108.053-.055.053-.055h1.192s.108,0,.053.055Zm0-.6a1.071,1.071,0,0,1-.651.217.84.84,0,0,1-.542-.272.562.562,0,0,1,.055-.758c.108-.055.108,0,.108,0a.419.419,0,0,0,0,.542c-.163-.542.6-1.03.6-1.03.053-.053.108-.053.108,0a.6.6,0,0,0,.163.488c.108.162.271.325.271.487a.261.261,0,0,1-.108.325" transform="translate(1.559 1.167)" fill="#e4e4e4"/>
      <path id="Path_2874" data-name="Path 2874" d="M14.775,9.325a2.059,2.059,0,1,0,0,4.118,2.06,2.06,0,1,0,0-4.118" transform="translate(2.725 1.999)" fill="#e4e4e4"/>
      <path id="Path_2875" data-name="Path 2875" d="M10.8,22.458a16.4,16.4,0,0,0,4.389,3.033,16.7,16.7,0,0,0,4.442-2.979l-4.442-4.443ZM13.668,23h-.65v-.055h.163c.053-.053.053-.053.053-.108v-.975a.765.765,0,0,0-.163.108h-.053c-.053,0-.053,0-.053-.055v-.053a1.878,1.878,0,0,0,.432-.271h.055a.054.054,0,0,1,.055.055v1.191c0,.055,0,.108.053.108h.108a.054.054,0,0,1,.056.055Zm.759.055a.437.437,0,0,1-.487-.38.507.507,0,0,1,.324-.432c-.108-.055-.271-.163-.271-.327,0-.108.108-.324.434-.324h.055c.216,0,.379.109.379.271a.505.505,0,0,1-.217.38.426.426,0,0,1,.272.379.444.444,0,0,1-.488.434m2.006-.163v-.217a.052.052,0,0,1,.052-.053.053.053,0,0,1,.055.053c0,.163.055.217.216.217a.253.253,0,0,0,.271-.271.454.454,0,0,0-.432-.434.054.054,0,0,1-.055-.055l.055-.487a.053.053,0,0,1,.053-.055h.542a.054.054,0,0,1,.055.055v.27h-.055a.052.052,0,0,1-.053-.053s0-.055-.109-.055H16.7v.163c.271.055.6.217.6.543a.577.577,0,0,1-.651.542A.2.2,0,0,1,16.485,23a.053.053,0,0,1-.052-.055Zm-.759-1.3h.052c.217,0,.38.109.38.271a.508.508,0,0,1-.216.38.424.424,0,0,1,.27.379.442.442,0,0,1-.486.434c-.272,0-.488-.163-.488-.38a.507.507,0,0,1,.324-.432c-.108-.055-.271-.163-.271-.327a.426.426,0,0,1,.435-.324" transform="translate(2.314 3.873)" fill="#e4e4e4"/>
      <path id="Path_2876" data-name="Path 2876" d="M13.824,21.594h-.053a.364.364,0,0,0-.163.325.232.232,0,0,0,.216.216c.163,0,.217-.053.217-.216s-.055-.217-.217-.325" transform="translate(2.917 4.629)" fill="#e4e4e4"/>
      <path id="Path_2877" data-name="Path 2877" d="M14.851,21.594H14.8a.364.364,0,0,0-.163.325.233.233,0,0,0,.217.216c.162,0,.27-.053.27-.216s-.108-.217-.27-.325" transform="translate(3.137 4.629)" fill="#e4e4e4"/>
      <path id="Path_2878" data-name="Path 2878" d="M14.9,21.492a.241.241,0,0,0,.163-.217.2.2,0,0,0-.216-.215c-.109,0-.163.107-.163.215,0,.055.053.109.163.217Z" transform="translate(3.146 4.515)" fill="#e4e4e4"/>
      <path id="Path_2879" data-name="Path 2879" d="M13.869,21.492a.241.241,0,0,0,.163-.217.2.2,0,0,0-.217-.215c-.108,0-.162.107-.162.215,0,.055.053.109.162.217Z" transform="translate(2.927 4.515)" fill="#e4e4e4"/>
      <path id="Path_2880" data-name="Path 2880" d="M130.408,11.5v5.148h2.166V6.246H129.92v.271c.163,0,.271.109.379.272a2.3,2.3,0,0,1,.109.65V9.877h-1.951V11.5h1.951Z" transform="translate(27.535 1.339)" fill="#e4e4e4"/>
      <path id="Path_2881" data-name="Path 2881" d="M65.607,14.045c-.055-.055-.055-.108-.108-.163-.325-.324-.651-.6-.975-.867a7.212,7.212,0,0,0-.759-.6c-.216-.163-.488-.325-.759-.488a13.7,13.7,0,0,0,.976-2.384,10.251,10.251,0,0,0,.432-3.035H61.273v.271a.77.77,0,0,1,.434.325c.216.163.271.488.271.975a8.5,8.5,0,0,1-.271,1.626c-.163.542-.325,1.083-.543,1.625a8.518,8.518,0,0,1-1.191,2,9.27,9.27,0,0,1-1.517,1.679l.975.92A6.613,6.613,0,0,0,60.948,14.7a16.711,16.711,0,0,0,1.246-1.517,5.715,5.715,0,0,1,.6.488l.542.542c.271.324.6.65.922,1.083a8.258,8.258,0,0,1,.758,1.03l.6-.812.6-.759a3.414,3.414,0,0,0-.6-.7" transform="translate(12.53 1.397)" fill="#e4e4e4"/>
      <path id="Path_2882" data-name="Path 2882" d="M65.524,6.517c.108,0,.217.108.325.271a1.1,1.1,0,0,1,.162.6V9.93H63.9v1.625h2.112v8.073h2V6.246H65.524Z" transform="translate(13.697 1.339)" fill="#e4e4e4"/>
      <path id="Path_2883" data-name="Path 2883" d="M122.823,11a4.972,4.972,0,0,0,2.871.812A4.8,4.8,0,0,0,128.512,11,2.469,2.469,0,0,0,129.7,8.94a2.468,2.468,0,0,0-1.193-2.06,4.8,4.8,0,0,0-2.817-.812,4.972,4.972,0,0,0-2.871.812,2.468,2.468,0,0,0-1.192,2.06A2.469,2.469,0,0,0,122.823,11m1.517-3.035a2.246,2.246,0,0,1,1.354-.434,2.2,2.2,0,0,1,1.3.434,1.15,1.15,0,0,1,.542.976,1.238,1.238,0,0,1-.542,1.029,2.159,2.159,0,0,1-1.3.379,2.216,2.216,0,0,1-1.354-.379A1.235,1.235,0,0,1,123.8,8.94a1.147,1.147,0,0,1,.542-.976" transform="translate(26.072 1.301)" fill="#e4e4e4"/>
      <path id="Path_2884" data-name="Path 2884" d="M100.579,13.025a16.558,16.558,0,0,0,2.221-2.113,24.724,24.724,0,0,1,2.384,1.517,8.936,8.936,0,0,1,2.06,2.221l1.679-1.517a11.358,11.358,0,0,0-2.438-1.95,12.5,12.5,0,0,0-2.872-1.354A11.751,11.751,0,0,0,104.48,8.2a7.167,7.167,0,0,0,.543-1.734h-3.631v.272c.217,0,.38.162.542.432a1.051,1.051,0,0,1,0,.814,9.1,9.1,0,0,1-1.842,3.033A10.144,10.144,0,0,1,97,13.622l.922.975a19,19,0,0,0,2.655-1.571" transform="translate(20.793 1.387)" fill="#e4e4e4"/>
      <rect id="Rectangle_211" data-name="Rectangle 211" width="2.166" height="13.382" transform="translate(82.579 7.586)" fill="#e4e4e4"/>
      <path id="Path_2885" data-name="Path 2885" d="M72.666,7.154a.98.98,0,0,1,.108.542V14.9H83.014V6.558H80.9V9.214H74.942V6.558H72.286v.325c.164,0,.271.055.38.271m2.276,3.684H80.9v2.384H74.942Z" transform="translate(15.495 1.406)" fill="#e4e4e4"/>
      <path id="Path_2886" data-name="Path 2886" d="M126.078,12.878v2.6h2.166v-2.6h2.6V11.2h-9.482v1.679h4.714Z" transform="translate(26.014 2.401)" fill="#e4e4e4"/>
      <path id="Path_2887" data-name="Path 2887" d="M119.625,13.929a8.952,8.952,0,0,0-2.221-.7,14.518,14.518,0,0,0-1.571-.108,8.339,8.339,0,0,0-3.414.651l-.325.162c-1.029.488-1.571,1.138-1.571,1.842,0,.758.543,1.41,1.571,1.9.109.053.217.108.325.163a8.354,8.354,0,0,0,3.414.6,7.354,7.354,0,0,0,1.571-.109,7.1,7.1,0,0,0,2.221-.65c1.029-.487,1.517-1.139,1.517-1.9,0-.7-.488-1.354-1.517-1.842m-1.679,2.709c-.163.053-.325.108-.542.163a6.684,6.684,0,0,1-1.571.163,6.167,6.167,0,0,1-2.113-.325c-.543-.271-.814-.542-.814-.867q0-.406.814-.812a6.2,6.2,0,0,1,2.113-.325,6.684,6.684,0,0,1,1.571.163c.216.055.379.108.542.163.6.271.867.542.867.812,0,.325-.271.6-.867.867" transform="translate(23.69 2.812)" fill="#e4e4e4"/>
      <path id="Path_2888" data-name="Path 2888" d="M112.838,13.506h3.739v-.65h2.493v1.625h2.166V6.247h-2.655v.271c.163,0,.271.108.379.271a2.312,2.312,0,0,1,.109.65v.651h-2.493V6.571H114.41v1.95h-3.2V6.571h-2.655V6.9c.163,0,.271.055.379.271a.978.978,0,0,1,.109.6v5.743Zm3.739-3.684h2.493v1.3h-2.493Zm-5.364.325h3.2v1.679h-3.2Z" transform="translate(23.27 1.339)" fill="#e4e4e4"/>
      <path id="Path_2889" data-name="Path 2889" d="M71.751,14.946v1.679H84.375V14.946H71.751Z" transform="translate(15.38 3.204)" fill="#e4e4e4"/>
      <path id="Path_2890" data-name="Path 2890" d="M130.162,16.4h-4.984V13.742h-2.656v.271a.344.344,0,0,1,.325.271,1.1,1.1,0,0,1,.163.6v3.2h11.052V16.4Z" transform="translate(26.263 2.946)" fill="#e4e4e4"/>
      <path id="Path_2891" data-name="Path 2891" d="M92.861,14.37V12.69H86.577V11.227H91.67V6.514H84.41V8.248h5.146V9.656h-5.58v.272c.108,0,.217.108.325.324a1.1,1.1,0,0,1,.161.6V14.37Z" transform="translate(18 1.397)" fill="#e4e4e4"/>
      <path id="Path_2892" data-name="Path 2892" d="M87.969,16.4V13.742H85.314v.325c.162,0,.271.108.379.271a1.668,1.668,0,0,1,.109.434v3.3H96.042V16.4H87.969Z" transform="translate(18.287 2.946)" fill="#e4e4e4"/>
      <rect id="Rectangle_212" data-name="Rectangle 212" width="12.624" height="1.679" transform="translate(117.47 18.15)" fill="#e4e4e4"/>
      <path id="Path_2893" data-name="Path 2893" d="M94.349,6.246H91.694v.271c.163,0,.271.108.379.271a2.32,2.32,0,0,1,.109.651v8.505h2.166V10.689h2.113V9.009H94.349Z" transform="translate(19.655 1.339)" fill="#e4e4e4"/>
      <path id="Path_2894" data-name="Path 2894" d="M88.638,20.935c-.6,0-.975-.055-1.192-.055a.471.471,0,0,0,0,.38,1.933,1.933,0,0,1,.6.108c.271.055.325.163.325.434.055.7,0,1.95,0,3.2-.434-.542-2-2.546-2.764-3.575-.216-.325-.271-.379-.324-.488H84.9c-.488,0-.922-.055-1.192-.055v.38a1.751,1.751,0,0,1,.65.108.519.519,0,0,1,.272.488c0,1.788-.055,3.087-.109,3.575,0,.271-.108.38-.271.434s-.325.053-.487.109c-.055.053-.055.324,0,.324h2.221c0-.053.053-.271,0-.324a5.181,5.181,0,0,1-.542-.109c-.217-.053-.325-.163-.325-.487-.055-.488-.055-2.276-.055-3.2,0-.053.055-.053.055,0,.6.759,2.655,3.468,3.088,4.173a1.308,1.308,0,0,1,.65,0V25.106c0-2,0-2.6.055-3.3,0-.216.053-.379.325-.434a.628.628,0,0,1,.379-.108c0-.055.055-.325,0-.38-.108,0-.651.055-.975.055" transform="translate(17.943 4.476)" fill="#e4e4e4"/>
      <path id="Path_2895" data-name="Path 2895" d="M83.706,25.2c-.325-.758-1.246-3.3-1.409-3.792-.055-.163-.109-.324-.163-.488h-.6c-.053.109-.108.379-.163.543-.163.6-.975,2.763-1.354,3.63-.216.6-.38.759-.759.812a.375.375,0,0,0-.1.024l.1.03h.216c.045.044.016.227-.026.324h1.652c.055-.053.055-.271.055-.324-.163,0-.325-.055-.434-.055-.271-.108-.271-.162-.271-.325a8.758,8.758,0,0,1,.379-1.191.117.117,0,0,1,.108-.109h1.463a.19.19,0,0,0,.108.055c.108.379.325.922.434,1.3a.218.218,0,0,1-.108.217,3.641,3.641,0,0,1-.487.108v.324h2.274a.186.186,0,0,0,.055-.108v-.216h-.055c-.6-.108-.65-.163-.92-.759M82.243,23.8H81.051v-.055c.163-.542.435-1.3.6-1.788.162.325.487,1.3.65,1.733,0,.055,0,.109-.055.109" transform="translate(16.969 4.485)" fill="#e4e4e4"/>
      <path id="Path_2896" data-name="Path 2896" d="M79.945,26.289a.341.341,0,0,1,0-.324.442.442,0,0,0,.12-.032,1.281,1.281,0,0,1-.662-.4,18.452,18.452,0,0,1-1.3-1.789v-.055a1.541,1.541,0,0,0,.975-1.407,1.4,1.4,0,0,0-1.571-1.355H75.07c-.055,0-.108.271-.055.325.217,0,.38.053.487.053.217.055.272.163.272.434v3.684c0,.325-.108.435-.272.487-.162,0-.27.056-.487.056a.348.348,0,0,0,0,.324h2.329c.055,0,.055,0,.055-.053v-.271a4.074,4.074,0,0,1-.487-.108.288.288,0,0,1-.325-.325V24.013h.651c.053,0,.107.055.162.055v.055c.325.487.812,1.246,1.084,1.625a1.223,1.223,0,0,0,.434.379,3,3,0,0,0,1.246.217h.161a.22.22,0,0,0,.029-.055h-.408Zm-2.221-2.817c-.055.055-.163.055-.325.108H76.64c-.053,0-.053,0-.053-.053v-2.06a.192.192,0,0,1,.053-.108.8.8,0,0,1,.325-.055,1.047,1.047,0,0,1,.434.055c.542.108.812.542.812,1.191a.988.988,0,0,1-.487.922" transform="translate(16.071 4.486)" fill="#e4e4e4"/>
      <path id="Path_2897" data-name="Path 2897" d="M66.246,25.539a.659.659,0,0,1-.542.325,11.241,11.241,0,0,1-1.355-.055.456.456,0,0,1-.216-.38V23.86a.053.053,0,0,1,.053-.055h1.192a.42.42,0,0,1,.216.217.923.923,0,0,1,.055.434c.055.053.38,0,.434,0a4.733,4.733,0,0,1-.053-.868c0-.324.053-.65.053-.866,0-.055-.271-.055-.379,0,0,.108-.055.271-.055.379a.38.38,0,0,1-.271.216H64.186a.052.052,0,0,1-.053-.053V21.584a.408.408,0,0,1,.108-.217h1.3c.216.055.271.109.324.325a1.35,1.35,0,0,1,.109.542c.055,0,.325,0,.379-.053a4.355,4.355,0,0,1,.163-1.247.053.053,0,0,1-.055-.053,5.334,5.334,0,0,1-.975.053H63.862c-.488,0-1.03-.053-1.246-.053a.458.458,0,0,0,0,.379c.216,0,.379.053.487.053.163.055.216.164.216.435V25.43c0,.271-.053.38-.27.435-.163.053-.434.053-.706.108-.053.053-.053.324,0,.324h3.739c.379,0,.488-.053.488-.162a6.559,6.559,0,0,0,.379-1.247.781.781,0,0,0-.325-.108l-.379.759" transform="translate(13.355 4.476)" fill="#e4e4e4"/>
      <path id="Path_2898" data-name="Path 2898" d="M61.735,23.554c-.271-.162-.759-.379-1.083-.6a1.029,1.029,0,0,1-.542-.975.8.8,0,0,1,.812-.812,1.675,1.675,0,0,1,.7.162,1.544,1.544,0,0,1,.271.922c.053.055.324.055.324,0,.055-.434.109-1.03.163-1.3a7.776,7.776,0,0,0-1.354-.162,1.524,1.524,0,0,0-1.679,1.517c0,.812.487,1.191,1.3,1.679.758.434,1.083.65,1.083,1.191a.845.845,0,0,1-.867.867,1.407,1.407,0,0,1-.812-.216,2.824,2.824,0,0,1-.6-1.138c-.053-.055-.325.053-.379.108.053.325.216,1.3.271,1.409a4.8,4.8,0,0,0,1.246.271,1.716,1.716,0,0,0,1.9-1.679,1.323,1.323,0,0,0-.759-1.246" transform="translate(12.664 4.457)" fill="#e4e4e4"/>
      <path id="Path_2899" data-name="Path 2899" d="M74.722,25.539c-.216.217-.325.325-.542.325a12.142,12.142,0,0,1-1.409-.055.617.617,0,0,1-.163-.38V23.86a.053.053,0,0,1,.053-.055h1.192a.427.427,0,0,1,.217.217.942.942,0,0,1,.053.434c.055.053.325,0,.38,0v-.868c0-.324.053-.65.053-.866a.454.454,0,0,0-.379,0c0,.108-.055.271-.055.379a.378.378,0,0,1-.271.216H72.662a.052.052,0,0,1-.053-.053V21.584a.408.408,0,0,1,.108-.217h1.246c.271.055.325.109.38.325a1.373,1.373,0,0,1,.108.542c.055,0,.325,0,.379-.053a8.315,8.315,0,0,1,.108-1.247V20.88a5.334,5.334,0,0,1-.975.053H72.338c-.488,0-1.03-.053-1.246-.053-.055.053-.055.324-.055.379a4.234,4.234,0,0,1,.487.053c.217.055.271.164.271.435V25.43c0,.271-.053.38-.271.435-.161.053-.432.053-.7.108-.055.053-.055.324,0,.324h3.738c.379,0,.434-.053.488-.162a6.472,6.472,0,0,0,.379-1.247.792.792,0,0,0-.379-.108,4.637,4.637,0,0,1-.325.759" transform="translate(15.172 4.476)" fill="#e4e4e4"/>
      <path id="Path_2900" data-name="Path 2900" d="M71.8,20.88c-.216,0-.434.055-.92.055-.6,0-.976-.055-1.084-.055a.471.471,0,0,0,0,.38c.216,0,.325.053.488.053.216.108.271.163.216.543-.271.758-.975,2.763-1.246,3.412H69.2c-.162-.432-1.029-2.925-1.246-3.63-.053-.108-.053-.271.109-.271a1.012,1.012,0,0,1,.432-.108.461.461,0,0,0,0-.38c-.053,0-.65.055-1.138.055-.379,0-.866-.055-1.083-.055a.461.461,0,0,0,0,.38.784.784,0,0,1,.38.108c.324.053.379.216.6.758.217.651.7,1.9,1.084,3.089a6.264,6.264,0,0,1,.324,1.137h.6c.108-.216.325-.758.542-1.354.434-1.083.867-2.329,1.138-2.925.163-.434.217-.6.487-.7a.784.784,0,0,1,.38-.108.471.471,0,0,0,0-.38" transform="translate(14.196 4.476)" fill="#e4e4e4"/>
      <path id="Path_2901" data-name="Path 2901" d="M123.767,20.954h-3.035a1.9,1.9,0,0,1-.7-.108c0-.053-.109,0-.109.053a14.307,14.307,0,0,1-.163,1.518c0,.053.272.108.325.108.163-.434.272-.7.325-.867a.43.43,0,0,1,.379-.271h.975c.055,0,.055.055.055.108v3.739c-.055.434-.108.6-.379.65a4.4,4.4,0,0,1-.6.109.348.348,0,0,0,0,.324h2.71c.055,0,.055-.271,0-.324a4.072,4.072,0,0,1-.651-.109.346.346,0,0,1-.271-.379c-.053-.434,0-2.709,0-4.01v-.108h1.084a.342.342,0,0,1,.324.271,6.814,6.814,0,0,1,.163.812c0,.055.325.055.379,0a13.884,13.884,0,0,1,.163-1.625.187.187,0,0,0-.108-.053c-.216.162-.434.162-.867.162" transform="translate(25.67 4.457)" fill="#e4e4e4"/>
      <path id="Path_2902" data-name="Path 2902" d="M128.708,25.2c-.325-.758-1.246-3.3-1.409-3.792-.055-.163-.109-.324-.163-.488h-.6c-.055.109-.108.379-.163.543-.216.6-.975,2.763-1.354,3.63-.272.7-.38.759-.975.867a.341.341,0,0,0,0,.324h2.058c.055-.053.055-.271.055-.324-.163,0-.325-.055-.434-.055-.271-.108-.271-.162-.271-.325a8.76,8.76,0,0,1,.379-1.191.117.117,0,0,1,.108-.109h1.463a.19.19,0,0,0,.108.055c.108.379.325.922.434,1.3a.218.218,0,0,1-.108.217,3.668,3.668,0,0,1-.488.108v.324h2.276v-.324c-.6-.108-.65-.163-.92-.759M127.244,23.8h-1.192v-.055c.109-.542.434-1.3.543-1.788h.053c.163.325.488,1.3.651,1.733,0,.055,0,.109-.055.109" transform="translate(26.581 4.485)" fill="#e4e4e4"/>
      <path id="Path_2903" data-name="Path 2903" d="M119.3,25.865c-.271-.055-.271-.163-.325-.434V21.747c.055-.271.055-.38.271-.434a1.2,1.2,0,0,1,.488-.055c.053-.053,0-.324,0-.379-.216,0-.759.055-1.192.055s-.975-.055-1.137-.055c0,.055-.055.325,0,.379a1.172,1.172,0,0,1,.54.108c.163.055.217.109.217.38a15.64,15.64,0,0,1,0,1.626c0,1.409.055,1.9,0,2.166,0,.163-.055.271-.325.379a1.5,1.5,0,0,0-.432.055c-.055.053-.055.324,0,.324h2.437c.055,0,.055-.271,0-.324a4.99,4.99,0,0,1-.542-.108" transform="translate(25.156 4.476)" fill="#e4e4e4"/>
      <path id="Path_2904" data-name="Path 2904" d="M132.916,24.51a8.265,8.265,0,0,1-.487.975c-.217.325-.38.38-.543.38a10.386,10.386,0,0,1-1.355-.055c0-.053-.162-.108-.162-.271v-3.9a.3.3,0,0,1,.27-.325c.109,0,.217-.055.434-.055a.449.449,0,0,0,0-.379,4.513,4.513,0,0,1-1.083.053c-.6,0-.866-.053-1.138-.053-.053.053-.053.324-.053.379.217,0,.38.055.487.055.217.053.272.163.272.487v3.739c-.055.163-.055.271-.272.325a5.453,5.453,0,0,1-.648.108c.052,0,.052.216,0,.324h1.353c.435,0,1.842.055,2.384.055.272,0,.38-.055.38-.163a7.094,7.094,0,0,0,.487-1.517c-.055-.108-.27-.163-.324-.163" transform="translate(27.573 4.476)" fill="#e4e4e4"/>
      <path id="Path_2905" data-name="Path 2905" d="M115.959,20.925h-2.437c-.055,0-.055.271-.055.325a1.069,1.069,0,0,1,.434.053c.271.055.324.109.324.434v3.684a.524.524,0,0,1-.216.487c-.108,0-.325.056-.487.056a.341.341,0,0,0,0,.324h2.384c0-.053.053-.271,0-.324-.271-.056-.434-.056-.6-.109-.217-.053-.217-.163-.272-.324V21.467a.19.19,0,0,1,.055-.108c.055-.055.325-.055.38-.055a1.2,1.2,0,0,1,1.3,1.3,1.144,1.144,0,0,1-.542,1.083.882.882,0,0,1-.542.109h-.325v.108a.569.569,0,0,0,.109.271c.108,0,.216.055.325.055a2.062,2.062,0,0,0,.92-.217,1.741,1.741,0,0,0,.92-1.571,1.646,1.646,0,0,0-.542-1.191,1.838,1.838,0,0,0-1.138-.325" transform="translate(24.322 4.486)" fill="#e4e4e4"/>
      <path id="Path_2906" data-name="Path 2906" d="M93.7,24.855a2.381,2.381,0,0,1-.65.866,1.221,1.221,0,0,1-.867.272,2.221,2.221,0,0,1-2.113-2.438c0-1.463.6-2.33,1.788-2.33a2.45,2.45,0,0,1,.976.163c.379.163.432.325.54,1.03,0,.053.272,0,.325-.055,0-.379.108-1.03.108-1.409-.324,0-.92-.162-1.679-.162a3.836,3.836,0,0,0-1.679.379,2.873,2.873,0,0,0-1.3,2.437,2.623,2.623,0,0,0,2.872,2.872,3.956,3.956,0,0,0,1.354-.271,3.5,3.5,0,0,0,.6-1.192c0-.053-.163-.162-.271-.162" transform="translate(19.11 4.457)" fill="#e4e4e4"/>
      <path id="Path_2907" data-name="Path 2907" d="M104.925,25.865a.362.362,0,0,1-.271-.38V21.8c0-.271,0-.379.216-.487.108,0,.271-.055.488-.055V20.88c-.163,0-.7.055-1.138.055s-.867-.055-1.084-.055a.458.458,0,0,0,0,.379,1.38,1.38,0,0,1,.543.108c.108.055.108.109.163.272V23.21a.19.19,0,0,1-.055.108h-2.655a.186.186,0,0,0-.055-.108V21.747c.055-.271.055-.38.271-.434a2.917,2.917,0,0,1,.434-.055c0-.053.055-.324,0-.379-.216,0-.542.055-1.138.055-.542,0-.975-.055-1.138-.055,0,.055-.053.325,0,.379a1.171,1.171,0,0,1,.542.108c.217.055.217.109.217.38a14.1,14.1,0,0,1,.053,1.842,13.024,13.024,0,0,1-.053,1.679c0,.434-.055.542-.271.6a3.622,3.622,0,0,1-.488.108V26.3h2.384c.055,0,.108-.271.055-.324a4.43,4.43,0,0,0-.542-.108c-.216-.055-.271-.163-.325-.434V23.86l.055-.055h2.655l.055.055v1.625c-.055.217-.109.325-.217.38a3.188,3.188,0,0,1-.543.108c-.053.053-.053.324,0,.324h2.332c.107,0,.107-.271.053-.324a3.168,3.168,0,0,1-.542-.108" transform="translate(21.324 4.476)" fill="#e4e4e4"/>
      <path id="Path_2908" data-name="Path 2908" d="M97.421,25.539c-.162.217-.271.325-.487.325a12.131,12.131,0,0,1-1.409-.055.423.423,0,0,1-.163-.38V23.805h1.192a.543.543,0,0,1,.271.217,1.549,1.549,0,0,0,.053.434c.055.053.325,0,.38,0v-.868c0-.324.053-.65.053-.866a.454.454,0,0,0-.379,0,1.016,1.016,0,0,1-.108.379c0,.108-.109.163-.217.216H95.363V21.584a.417.417,0,0,1,.108-.217h1.246c.217.055.325.109.38.325a1.373,1.373,0,0,1,.108.542c.055,0,.325,0,.379-.053a8.147,8.147,0,0,1,.109-1.247l-.055-.053a4.463,4.463,0,0,1-.922.053H95.037c-.434,0-.975-.053-1.191-.053-.055.053-.055.324-.055.379.217,0,.379.053.488.053.216.055.216.164.271.435V25.43c-.055.271-.108.38-.271.435s-.434.053-.7.108c-.055.053-.055.324,0,.324H97.26c.434,0,.487-.053.542-.162a6.472,6.472,0,0,0,.379-1.247.788.788,0,0,0-.379-.108,2.5,2.5,0,0,1-.38.759" transform="translate(20.049 4.476)" fill="#e4e4e4"/>
      <path id="Path_2909" data-name="Path 2909" d="M112.731,23.554c-.271-.162-.759-.379-1.083-.6a1.077,1.077,0,0,1-.6-.975.81.81,0,0,1,.867-.812,1.289,1.289,0,0,1,.65.162c.216.164.271.435.325.922a.344.344,0,0,0,.325,0,8.3,8.3,0,0,1,.108-1.3,6.494,6.494,0,0,0-1.3-.162,1.524,1.524,0,0,0-1.679,1.517c0,.812.488,1.191,1.3,1.679.758.434,1.029.65,1.029,1.191a.806.806,0,0,1-.812.867,1.3,1.3,0,0,1-.812-.216,2.824,2.824,0,0,1-.6-1.138c-.053-.055-.325.053-.379.108.053.325.216,1.3.271,1.409a4.811,4.811,0,0,0,1.246.271,1.716,1.716,0,0,0,1.9-1.679,1.417,1.417,0,0,0-.759-1.246" transform="translate(23.595 4.457)" fill="#e4e4e4"/>
      <path id="Path_2910" data-name="Path 2910" d="M107.753,20.791h-.108a2.992,2.992,0,0,0-2.113,1.084,2.6,2.6,0,0,0-.542,1.679,3.029,3.029,0,0,0,.7,2.113,2.31,2.31,0,0,0,1.9.812h.055a2.977,2.977,0,0,0,2.166-1.138A3.093,3.093,0,0,0,110.3,23.5a2.515,2.515,0,0,0-2.546-2.709m.975,4.93a1.215,1.215,0,0,1-.812.271h-.271a1.6,1.6,0,0,1-.7-.271,2.723,2.723,0,0,1-1.03-2.329,2.275,2.275,0,0,1,.867-2,1.29,1.29,0,0,1,.65-.163h.217a2.406,2.406,0,0,1,.867.325,2.786,2.786,0,0,1,.92,2.276,2.308,2.308,0,0,1-.7,1.9" transform="translate(22.505 4.457)" fill="#e4e4e4"/>
      <path id="Path_2911" data-name="Path 2911" d="M57.216,12.934c-.662-.489-1.293-.971-1.942-1.432a6.887,6.887,0,0,0-2.759-1.037.875.875,0,0,0-.594.215,11.907,11.907,0,0,1-4.709,1.972A.8.8,0,0,1,46.7,12.5a6.313,6.313,0,0,1-.624-.5c1.1-.5,2.126-.89,3.083-1.414A6.888,6.888,0,0,0,51.295,8.03H46.589v-1.5H58.127V8c-.145.01-.3.028-.457.029-1.1,0-2.205.006-3.308,0-.266,0-.427.045-.526.34a8.117,8.117,0,0,1-.525,1.05c1.922.408,3.907.6,5.336,2.211l-1.432,1.309" transform="translate(9.876 1.401)" fill="#e4e4e4"/>
      <path id="Path_2912" data-name="Path 2912" d="M59.022,12.73v1.458H53.44c-.012.227-.028.385-.029.543,0,1.043-.023,2.086.01,3.128.015.447-.138.572-.559.534a6.988,6.988,0,0,0-1.116,0c-.351.024-.468-.095-.461-.453.022-1.058.008-2.115.008-3.173V14.23h-5.6v-1.5Z" transform="translate(9.795 2.729)" fill="#e4e4e4"/>
      <path id="Path_2913" data-name="Path 2913" d="M37.151,6.054A4.524,4.524,0,0,1,40.515,7.4a2.117,2.117,0,0,1-.171,3.22,4.918,4.918,0,0,1-6.4.012A2.161,2.161,0,0,1,34.057,7.1a4.57,4.57,0,0,1,3.094-1.048m-.061,4.421a5.289,5.289,0,0,0,.872-.143,1.56,1.56,0,0,0,1.155-1.225,1.236,1.236,0,0,0-.476-1.222,2.55,2.55,0,0,0-3.016.026,1.3,1.3,0,0,0-.164,1.849,2.213,2.213,0,0,0,1.63.715" transform="translate(7.091 1.298)" fill="#e4e4e4"/>
      <path id="Path_2914" data-name="Path 2914" d="M42.036,16.669c0-1.619-.015-3.152.01-4.686.006-.413-.112-.551-.525-.521-.458.034-.92.007-1.421.007V9.951c.465,0,.95-.022,1.432.006.376.022.534-.073.514-.488-.035-.7.024-1.4-.023-2.1a5.835,5.835,0,0,0-.3-1.111h2.33c.009.163.023.322.023.481,0,3.128-.007,6.256.01,9.385,0,.42-.092.59-.538.554-.485-.039-.975-.008-1.517-.008" transform="translate(8.595 1.342)" fill="#e4e4e4"/>
      <path id="Path_2915" data-name="Path 2915" d="M45.609,16.624v1.491H34.489c0-1.06,0-2.1,0-3.134a1.135,1.135,0,0,0-.476-1.066h2.523v2.063c0,.645,0,.646.628.646h8.446" transform="translate(7.29 2.983)" fill="#e4e4e4"/>
      <path id="Path_2916" data-name="Path 2916" d="M42.308,12.89H39.661c0,.715-.028,1.4.01,2.075.025.444-.132.567-.555.537-.472-.035-.95-.009-1.5-.009,0-.692,0-1.354,0-2.017,0-.6,0-.6-.6-.6-1.265,0-2.531-.01-3.8.006-.329,0-.457-.091-.434-.43.024-.367,0-.736,0-1.133h9.522Z" transform="translate(7.026 2.427)" fill="#e4e4e4"/>
      <path id="Path_2917" data-name="Path 2917" d="M32.048,20.915h1.035a25.57,25.57,0,0,0,1.07,3.814l.187-.022,1.473-3.894c.364.878.687,1.659,1.013,2.438.153.366.3.733.474,1.092a1.165,1.165,0,0,0,.239.259c.064-.083.162-.154.191-.248.3-.947.588-1.9.86-2.849a2.215,2.215,0,0,0,.007-.583h.68l-1.925,5.553c-.585-1.382-1.122-2.653-1.66-3.925l-.185.028-1.468,3.79-.135,0q-.925-2.723-1.856-5.459" transform="translate(6.869 4.462)" fill="#e4e4e4"/>
      <path id="Path_2918" data-name="Path 2918" d="M41.478,20.8a2.565,2.565,0,0,1,2.855,2.652,2.88,2.88,0,0,1-2.944,2.908,2.792,2.792,0,0,1-2.871-2.787A2.761,2.761,0,0,1,41.478,20.8m-.25.29a1.421,1.421,0,0,0-1.353.584,3.261,3.261,0,0,0,.585,4,1.754,1.754,0,0,0,2.735-.752,3.935,3.935,0,0,0,.079-2.159,1.961,1.961,0,0,0-2.046-1.672" transform="translate(8.257 4.457)" fill="#e4e4e4"/>
      <path id="Path_2919" data-name="Path 2919" d="M44.83,20.841c.646.664,1.287,1.333,1.939,1.99s1.322,1.311,2.051,1.943a14.152,14.152,0,0,0-.135-3.864h.7a8.409,8.409,0,0,0-.1.91c-.011,1.3,0,2.6-.006,3.893,0,.175-.015.351-.023.526l-.137.084c-.636-.679-1.264-1.365-1.911-2.034s-1.3-1.3-1.947-1.951l-.179.077v.812c0,.716.027,1.433-.01,2.147a.74.74,0,0,0,.635.869H44.386a3.619,3.619,0,0,0,.278-.953c.033-1.446.015-2.893.015-4.339l.152-.109" transform="translate(9.514 4.468)" fill="#e4e4e4"/>
      <path id="Path_2920" data-name="Path 2920" d="M52.453,20.893h1.1a6.386,6.386,0,0,0-.1.877,28.615,28.615,0,0,0,.112,3.031,1.445,1.445,0,0,0,2.332.933,1.59,1.59,0,0,0,.525-1.342c.035-.964.019-1.931,0-2.9a2.4,2.4,0,0,0-.164-.59h.792c-.035.315-.095.631-.1.948-.015.748,0,1.5-.006,2.247A2,2,0,0,1,54.8,26.287a1.967,1.967,0,0,1-2.164-2.157c-.006-.849.011-1.7-.01-2.545a3.26,3.26,0,0,0-.169-.692" transform="translate(11.243 4.479)" fill="#e4e4e4"/>
      <path id="Path_2921" data-name="Path 2921" d="M49.915,27.744a3.969,3.969,0,0,0,.56-2.481c0-1.214.009-2.429-.007-3.643a3.763,3.763,0,0,0-.155-.727H51.4a4.8,4.8,0,0,0-.1.692c-.011,1.381-.021,2.761,0,4.142a2.2,2.2,0,0,1-1.376,2.017" transform="translate(10.699 4.479)" fill="#e4e4e4"/>
    </g>
  </g>
</svg>
