<svg id="Group_963" data-name="Group 963" xmlns="http://www.w3.org/2000/svg" xmlns:xlink="http://www.w3.org/1999/xlink" width="165.305" height="33" viewBox="0 0 165.305 33">
  <defs>
    <clipPath id="clip-path">
      <rect id="Rectangle_255" data-name="Rectangle 255" width="165.305" height="33" fill="none"/>
    </clipPath>
  </defs>
  <g id="Group_962" data-name="Group 962" clip-path="url(#clip-path)">
    <path id="Path_2806" data-name="Path 2806" d="M0,16.5V0H33V.909A15.591,15.591,0,0,1,17.409,16.5Z" fill="#7f26e5"/>
    <path id="Path_2807" data-name="Path 2807" d="M0,33V16.5H17.409A15.591,15.591,0,0,1,33,32.091V33Z" fill="#bd9fff"/>
    <path id="Path_2808" data-name="Path 2808" d="M63.187,15.565,74.7,3.721A1.9,1.9,0,0,0,73.336.49h-1.1a1.9,1.9,0,0,0-1.364.575L54.785,17.588V2.393a1.9,1.9,0,0,0-1.9-1.9h-.817a1.9,1.9,0,0,0-1.9,1.9v28.58a1.9,1.9,0,0,0,1.9,1.9h.817a1.9,1.9,0,0,0,1.9-1.9V24.148l5.147-5.29L71.747,32.234a1.9,1.9,0,0,0,1.426.643h1.1A1.9,1.9,0,0,0,75.7,29.712Z" fill="#fff"/>
    <path id="Path_2809" data-name="Path 2809" d="M81.257,7.962H80.44a1.9,1.9,0,0,0-1.9,1.9V30.973a1.9,1.9,0,0,0,1.9,1.9h.817a1.9,1.9,0,0,0,1.9-1.9V9.866a1.9,1.9,0,0,0-1.9-1.9" fill="#fff"/>
    <path id="Path_2810" data-name="Path 2810" d="M80.848,0a2.985,2.985,0,0,0-2.966,2.966,2.892,2.892,0,0,0,.883,2.079,2.916,2.916,0,0,0,4.225-.04,2.939,2.939,0,0,0,.824-2.039A2.952,2.952,0,0,0,80.848,0" fill="#fff"/>
    <path id="Path_2811" data-name="Path 2811" d="M106.525,9.063A11.347,11.347,0,0,0,101.14,7.84,11.568,11.568,0,0,0,94.326,9.8c-.048.033-.095.067-.142.1V9.866a1.9,1.9,0,0,0-1.9-1.9h-.817a1.9,1.9,0,0,0-1.9,1.9V30.973a1.9,1.9,0,0,0,1.9,1.9h.817a1.9,1.9,0,0,0,1.9-1.9V19.5a8.167,8.167,0,0,1,.843-3.83A5.658,5.658,0,0,1,97.335,13.3a7.8,7.8,0,0,1,3.846-.879,5.627,5.627,0,0,1,4.233,1.469,6.429,6.429,0,0,1,1.456,4.629V30.973a1.9,1.9,0,0,0,1.9,1.9h.817a1.9,1.9,0,0,0,1.9-1.9V18.521a12.076,12.076,0,0,0-1.264-5.711,8.873,8.873,0,0,0-3.706-3.747" fill="#fff"/>
    <path id="Path_2812" data-name="Path 2812" d="M133.54,9.469a12.684,12.684,0,0,0-12.448,0,11.929,11.929,0,0,0-4.342,4.458,13,13,0,0,0-1.592,6.468,13.143,13.143,0,0,0,1.585,6.455,11.823,11.823,0,0,0,4.348,4.511,12.683,12.683,0,0,0,12.449.005,11.64,11.64,0,0,0,4.361-4.526,13.286,13.286,0,0,0,1.561-6.445,13.138,13.138,0,0,0-1.567-6.457,11.718,11.718,0,0,0-4.355-4.473m-6.23,18.947a7.174,7.174,0,0,1-6.522-3.8,8.478,8.478,0,0,1-1.005-4.22,8.451,8.451,0,0,1,1-4.235,7.135,7.135,0,0,1,2.67-2.758,7.407,7.407,0,0,1,3.855-.984,7.52,7.52,0,0,1,3.881.988,6.963,6.963,0,0,1,2.657,2.742,8.708,8.708,0,0,1,.989,4.247,8.624,8.624,0,0,1-.993,4.233,7.051,7.051,0,0,1-2.665,2.783,7.391,7.391,0,0,1-3.869,1" fill="#fff"/>
    <path id="Path_2813" data-name="Path 2813" d="M164.041,12.81a8.873,8.873,0,0,0-3.706-3.747,11.351,11.351,0,0,0-5.386-1.224A11.572,11.572,0,0,0,148.136,9.8l-.143.1V9.865a1.9,1.9,0,0,0-1.9-1.9h-.817a1.9,1.9,0,0,0-1.9,1.9V30.973a1.9,1.9,0,0,0,1.9,1.9h.817a1.9,1.9,0,0,0,1.9-1.9V19.5a8.164,8.164,0,0,1,.844-3.83,5.661,5.661,0,0,1,2.308-2.369,7.8,7.8,0,0,1,3.845-.879,5.624,5.624,0,0,1,4.234,1.47,6.427,6.427,0,0,1,1.456,4.628V30.973a1.9,1.9,0,0,0,1.9,1.9h.817a1.9,1.9,0,0,0,1.9-1.9V18.521a12.075,12.075,0,0,0-1.264-5.711" fill="#fff"/>
  </g>
</svg>
