<svg id="Group_959" data-name="Group 959" xmlns="http://www.w3.org/2000/svg" xmlns:xlink="http://www.w3.org/1999/xlink" width="70.129" height="14" viewBox="0 0 70.129 14">
  <defs>
    <clipPath id="clip-path">
      <rect id="Rectangle_253" data-name="Rectangle 253" width="70.129" height="14" fill="none"/>
    </clipPath>
  </defs>
  <g id="Group_958" data-name="Group 958" clip-path="url(#clip-path)">
    <path id="Path_2790" data-name="Path 2790" d="M0,7V0H14A7,7,0,0,1,7,7Z" fill="#7f26e5"/>
    <path id="Path_2791" data-name="Path 2791" d="M0,14V7H7a7,7,0,0,1,7,7Z" fill="#bd9fff"/>
    <path id="Path_2792" data-name="Path 2792" d="M26.806,6.6l4.885-5.025a.807.807,0,0,0-.579-1.37h-.468a.8.8,0,0,0-.578.245L23.242,7.462V1.016a.808.808,0,0,0-.808-.808h-.346a.808.808,0,0,0-.808.808V13.141a.807.807,0,0,0,.808.806h.346a.807.807,0,0,0,.808-.806v-2.9L25.425,8l5.012,5.674a.811.811,0,0,0,.606.272h.467a.807.807,0,0,0,.605-1.342Z" fill="#fff"/>
    <path id="Path_2793" data-name="Path 2793" d="M34.472,3.378h-.347a.807.807,0,0,0-.807.808v8.955a.807.807,0,0,0,.807.807h.347a.807.807,0,0,0,.808-.807V4.186a.808.808,0,0,0-.808-.808" fill="#fff"/>
    <path id="Path_2794" data-name="Path 2794" d="M34.3,0a1.267,1.267,0,0,0-1.258,1.258,1.226,1.226,0,0,0,.374.882,1.238,1.238,0,0,0,1.793-.017,1.247,1.247,0,0,0,.349-.865A1.251,1.251,0,0,0,34.3,0" fill="#fff"/>
    <path id="Path_2795" data-name="Path 2795" d="M45.193,3.845a4.825,4.825,0,0,0-2.286-.519,4.908,4.908,0,0,0-2.89.832c-.021.014-.039.029-.059.043V4.186a.809.809,0,0,0-.809-.808H38.8a.807.807,0,0,0-.807.808v8.955a.807.807,0,0,0,.807.807h.347a.808.808,0,0,0,.809-.807V8.273a3.473,3.473,0,0,1,.356-1.625,2.407,2.407,0,0,1,.979-1,3.318,3.318,0,0,1,1.632-.373,2.393,2.393,0,0,1,1.8.624,2.731,2.731,0,0,1,.617,1.964v5.283a.807.807,0,0,0,.807.807h.347a.807.807,0,0,0,.807-.807V7.858a5.123,5.123,0,0,0-.536-2.423,3.755,3.755,0,0,0-1.571-1.59" fill="#fff"/>
    <path id="Path_2796" data-name="Path 2796" d="M56.654,4.017a5.379,5.379,0,0,0-5.282,0A5.06,5.06,0,0,0,49.53,5.91a5.517,5.517,0,0,0-.675,2.744,5.568,5.568,0,0,0,.673,2.738,5.005,5.005,0,0,0,1.844,1.914,5.379,5.379,0,0,0,5.282,0,4.935,4.935,0,0,0,1.849-1.92,5.626,5.626,0,0,0,.662-2.734,5.573,5.573,0,0,0-.664-2.74,4.979,4.979,0,0,0-1.847-1.9M54.01,12.055a3.046,3.046,0,0,1-2.767-1.611,3.6,3.6,0,0,1-.426-1.79,3.592,3.592,0,0,1,.425-1.8,3.029,3.029,0,0,1,1.133-1.17A3.14,3.14,0,0,1,54.01,5.27a3.188,3.188,0,0,1,1.647.419,2.954,2.954,0,0,1,1.127,1.163,3.7,3.7,0,0,1,.42,1.8,3.654,3.654,0,0,1-.422,1.8,2.986,2.986,0,0,1-1.13,1.18,3.138,3.138,0,0,1-1.642.425" fill="#fff"/>
    <path id="Path_2797" data-name="Path 2797" d="M69.593,5.434a3.76,3.76,0,0,0-1.572-1.589,4.809,4.809,0,0,0-2.285-.519,4.911,4.911,0,0,0-2.891.832l-.06.043V4.186a.808.808,0,0,0-.808-.808h-.346a.808.808,0,0,0-.808.808V13.14a.807.807,0,0,0,.808.807h.346a.807.807,0,0,0,.808-.807V8.273a3.461,3.461,0,0,1,.358-1.625,2.393,2.393,0,0,1,.979-1,3.3,3.3,0,0,1,1.631-.373,2.387,2.387,0,0,1,1.8.623,2.727,2.727,0,0,1,.618,1.964V13.14a.807.807,0,0,0,.808.807h.346a.806.806,0,0,0,.808-.807V7.858a5.125,5.125,0,0,0-.536-2.424" fill="#fff"/>
  </g>
</svg>
