<?xml version="1.0" encoding="UTF-8"?>
<svg id="_레이어_1" data-name="레이어 1" xmlns="http://www.w3.org/2000/svg" viewBox="0 0 443.41 177.75">
  <defs>
    <style>
      .cls-1 {
        fill: #fff;
      }
    </style>
  </defs>
  <g>
    <rect class="cls-1" x="435.6" y="114.5" width="7.81" height="7.35" rx="2.83" ry="2.83"/>
    <path class="cls-1" d="m189.34,58.45h-3.01c-1.56,0-2.83,1.27-2.83,2.83v57.62c0,1.56,1.27,2.83,2.83,2.83h0s10.58,0,10.58,0c1.56,0,2.83-1.27,2.83-2.83v-1.97c0-1.56-1.27-2.83-2.83-2.83h-1.91c-1.56,0-2.83-1.27-2.83-2.83v-23.75c0-1.56,1.27-2.83,2.83-2.83h7.94c1.56,0,2.83-1.27,2.83-2.83v-1.96c0-1.56-1.27-2.83-2.83-2.83h-7.94c-1.56,0-2.83-1.27-2.83-2.83v-12.99c0-1.56-1.27-2.83-2.83-2.83Z"/>
    <path class="cls-1" d="m233.72,76.06c-6.84,0-12.26,2.29-16.28,6.85-4.02,4.57-6.03,10.52-6.03,17.84,0,6.51,2.08,11.95,6.24,16.29,4.16,4.35,9.62,6.53,16.41,6.53,5.74,0,10.36-1.69,13.87-5.04,1.42-1.35,1.06-3.72-.7-4.6l-2.34-1.16c-1.1-.54-2.4-.28-3.28.58-1.96,1.93-4.42,2.92-7.39,2.92-6.58,0-10.83-2.98-12.77-8.93-.59-1.82.79-3.7,2.7-3.7h28.24c1.56,0,2.83-1.27,2.83-2.83v-.05c0-7.16-1.92-13.06-5.74-17.71-3.83-4.65-9.08-6.97-15.76-6.97Zm-9.5,20.35c-1.94,0-3.31-1.92-2.68-3.76.74-2.17,1.87-4.05,3.4-5.63,2.36-2.44,5.26-3.66,8.7-3.66s6.24,1.21,8.37,3.61c1.41,1.6,2.46,3.51,3.12,5.76.54,1.83-.81,3.68-2.71,3.68h-18.2Z"/>
    <path class="cls-1" d="m312.57,76.06c-6.84,0-12.26,2.29-16.28,6.85-4.02,4.57-6.03,10.52-6.03,17.84,0,6.51,2.08,11.95,6.24,16.29,4.16,4.35,9.62,6.53,16.41,6.53,5.74,0,10.36-1.69,13.87-5.04,1.42-1.35,1.06-3.72-.7-4.6l-2.34-1.16c-1.1-.54-2.4-.28-3.28.58-1.96,1.93-4.42,2.92-7.39,2.92-6.58,0-10.83-2.98-12.77-8.93-.59-1.82.79-3.7,2.7-3.7h28.24c1.56,0,2.83-1.27,2.83-2.83v-.05c0-7.16-1.92-13.06-5.74-17.71-3.83-4.65-9.08-6.97-15.76-6.97Zm-9.5,20.35c-1.94,0-3.31-1.92-2.68-3.76.74-2.17,1.87-4.05,3.4-5.63,2.36-2.44,5.26-3.66,8.7-3.66s6.24,1.21,8.37,3.61c1.41,1.6,2.46,3.51,3.12,5.76.54,1.83-.81,3.68-2.71,3.68h-18.2Z"/>
    <path class="cls-1" d="m262.6,80.98v38.03c0,1.56,1.27,2.83,2.83,2.83h3.21c1.56,0,2.83-1.27,2.83-2.83v-30.93c0-1.56,1.27-2.83,2.83-2.83h11.23c1.56,0,2.83-1.27,2.83-2.83v-2.22c0-1.56-1.27-2.83-2.83-2.83h-19.31c-1.99,0-3.6,1.61-3.6,3.6Z"/>
    <path class="cls-1" d="m341.36,81.21v37.8c0,1.56,1.27,2.83,2.83,2.83h3.21c1.56,0,2.83-1.27,2.83-2.83v-30.93c0-1.56,1.27-2.83,2.83-2.83h16.21c1.56,0,2.83,1.27,2.83,2.83v30.93c0,1.56,1.27,2.83,2.83,2.83h3.21c1.56,0,2.83-1.27,2.83-2.83v-37.67c0-2.19-1.77-3.96-3.96-3.96h-31.78c-2.12,0-3.83,1.72-3.83,3.83Z"/>
    <path class="cls-1" d="m428.9,83.56v-3.36c.02-1.56-1.25-2.83-2.81-2.83h-32.76c-1.18,0-2.13.95-2.13,2.13v3.09c0,1.19.96,2.15,2.15,2.15h18.72c2.45,0,3.74,2.91,2.09,4.73l-22.36,24.4c-.38.42-.6.97-.6,1.54v3.6c0,1.56,1.27,2.83,2.83,2.83h32.05c1.56,0,2.83-1.27,2.83-2.83v-1.66c0-1.56-1.27-2.83-2.83-2.83h-17.8c-2.46,0-3.74-2.92-2.09-4.73l21.9-24.17c.51-.57.8-1.31.8-2.07Z"/>
  </g>
  <g>
    <path class="cls-1" d="m120.04,66.86c-.7-3.32-3.43-5.96-6.76-6.59-3.24-.61-6.21.6-8.11,2.78-1.68,1.92-3.98,3.18-6.53,3.18h-13.21c-2.1,0-4.11-.69-5.81-1.92-.87-.63-1.93-1-3.08-1s-2.3.4-3.18,1.08c-1.6,1.22-3.58,1.85-5.6,1.85h-15.68c-2.88,0-5.58-1.08-8.01-2.63-.77-.49-1.67-.77-2.65-.77-3.06,0-5.48,2.75-4.92,5.91.36,2.04,2.06,3.7,4.11,4.03,1.18.19,2.29-.04,3.23-.56,2.4-1.34,5-2.28,7.75-2.28h15.12c1.97,0,4.74,1.11,6.16,2.47l.29.28c.98.94,1.53,2.24,1.53,3.59v6.53c0,2.59-1.23,4.93-3.06,6.75-1.26,1.25-2.04,2.98-2.04,4.89s.78,3.64,2.04,4.89c1.84,1.82,3.06,4.17,3.06,6.75v11.46c0,2.36-.61,4.75-2.07,6.61-.66.84-1.05,1.89-1.05,3.04s.39,2.2,1.05,3.04c1.46,1.86,2.07,4.24,2.07,6.61v16.4c0,3.17-1.59,6.03-4.04,8.05-2.07,1.7-3.38,4.28-3.38,7.16,0,5.78,5.28,10.32,11.27,9.07,3.63-.76,6.51-3.78,7.14-7.43.59-3.47-.75-6.66-3.11-8.69-2.53-2.16-4.17-5.16-4.17-8.49v-16.19c0-2.32.58-4.67,2-6.5.65-.83,1.04-1.88,1.04-3.02s-.39-2.19-1.04-3.02c-1.42-1.83-2-4.18-2-6.5v-11.58c0-2.59,1.23-4.93,3.07-6.76,1.26-1.25,2.04-2.98,2.04-4.9s-.78-3.65-2.04-4.9c-1.84-1.82-3.07-4.17-3.07-6.76v-6.24c.64-3.14,2.3-4.65,3.5-5.37,1.6-.87,3.64-1.26,6.29-1.26h9.02c3.04,0,5.75,1.59,7.59,4.02,1.56,2.07,4.03,3.4,6.83,3.4,5.38,0,9.6-4.92,8.42-10.5Z"/>
    <path class="cls-1" d="m46.11,147.69c-1.45-1.77-2.05-4.09-2.05-6.37v-25.11c0-1.94.82-3.73,2.03-5.25.66-.83,1.06-1.88,1.06-3.02,0-2.98-2.68-5.34-5.76-4.79-2,.35-3.63,2.02-3.93,4.03-.21,1.4.17,2.71.94,3.71,1.4,1.83,1.96,4.16,1.96,6.47v27.9c-.45,1.36-1.86.84-1.86.84h0c-5.62-3.25-22.49-12.98-26.98-15.58-.65-.37-1.06-1-1.29-1.7-.18-.54-.49-1.02-.88-1.42-.52-.52-.87-1.17-.87-1.9v-27.96c0-2.13.91-4.09,2.25-5.75.73-.91,1.17-2.06,1.17-3.32s-.44-2.41-1.17-3.32c-1.6-1.97-2.25-4.55-2.25-7.09v-18.37c0-2,.82-3.94,2.32-5.26,1.35-1.18,2.2-2.91,2.2-4.84,0-.11-.02-.21-.02-.31l.04.03c-.09-.55,0-1.06.26-1.45.18-.27.53-.53.54-.54l17.81-10.51c1.96-1.16,4.19-1.92,6.46-1.78.62.04,1.27-.05,1.94-.28,1.48-.52,2.67-1.79,3.05-3.31.84-3.32-1.74-6.29-4.96-6.13-1.41.07-2.7.89-3.56,2.01-.36.46-.61.91-.78,1.35-.69,1.8-1.82,3.4-3.48,4.38l-15.4,9.09c-2.06,1.22-4.53,1.75-6.86,1.16-.94-.24-1.97-.26-3.04-.02-2.46.57-4.43,2.62-4.88,5.1-.41,2.25.34,4.32,1.75,5.74,1.74,1.76,2.55,4.26,2.55,6.74v17.41c0,2.54-.68,5.07-2.16,7.14-.62.87-.98,1.92-.98,3.07s.4,2.3,1.07,3.19c1.24,1.63,2.07,3.53,2.07,5.57v27.51c0,1.29-.42,2.49-.99,3.65-.33.67-.45,1.45-.3,2.28.33,1.78,2.01,2.99,3.81,2.99h.45c.94,0,2.38.38,3.2.85l25.83,14.91c.49.24.84.61,1.01,1.04.12.3.12.74.12.74l.04-.04c.26,2.89,3.02,5.05,6.11,4.23,1.59-.42,2.9-1.72,3.33-3.31.45-1.68.03-3.26-.91-4.4Z"/>
    <path class="cls-1" d="m151.73,85.26c-.4-1.56-1.68-2.83-3.23-3.23-2.44-.63-4.67.7-5.5,2.74v-.03c-.84,2.11-2.32,3.36-3.24,3.97l-.8.47h0s0,0,0,0l-19.24,11.35c-2.02,1.19-4.39,1.45-6.72,1.17-.71-.09-1.46-.04-2.23.16-2.1.54-3.79,2.26-4.27,4.38-.82,3.64,1.71,6.9,5.1,7.29,2.07.24,4.05-.86,5.33-2.5.4-.51.69-1,.9-1.47,1.51-3.42,4.28-6.13,7.51-8.04l14.76-8.71c2.15-1.27,4.64-1.71,7.14-1.69.01,0,.02,0,.03,0,2.96,0,5.26-2.77,4.47-5.86Z"/>
    <path class="cls-1" d="m151.04,47.69c-.47-1.65-1.79-3-3.43-3.51-.74-.23-1.47-.3-2.15-.24-2.52.22-5.03-.59-7.23-1.85l-18.45-10.65c-2.02-1.41-2.85-3.34-2.85-3.34h-.01c-.44-2.64-2.73-4.67-5.5-4.67-.26,0-.51.02-.76.05-2.21.31-4.47.11-7.85-1.85l-13.57-7.83c-2.34-1.35-3.73-3.74-4.21-6.39-.23-1.29-.88-2.68-2.17-4.21C81.19,1.23,78.84-.07,76.28,0c-5.2.15-9.25,4.92-8.18,10.35.68,3.46,3.57,6.2,7.05,6.74,1.35.21,2.64.11,3.83-.25,3.08-.92,6.37-.78,9.15.83l12.65,7.31c2.34,1.35,4.36,3.32,5.4,5.81.21.51.53,1.03.99,1.58,1.17,1.4,2.86,2.36,4.69,2.22.04,0,.09,0,.13-.01,2.73-.28,5.49.04,7.87,1.41l14.12,8.15c2.96,1.71,5.57,4.08,7.11,7.12.17.34.4.69.68,1.06,1.12,1.44,2.81,2.41,4.63,2.25,3.23-.28,5.63-3.43,4.65-6.88Z"/>
    <path class="cls-1" d="m147.86,119.97c-3.17.12-5.98,2.18-7.38,5.03-.3.62-.52,1.22-.66,1.8-.89,3.77-3.54,6.88-6.89,8.82l-14.69,8.48h0c-2.4,1.39-5.08,1.75-5.08,1.75h.01c-1.56.19-2.77,1.49-2.77,3.1,0,1.72,1.4,3.12,3.12,3.12.88,0,1.68-.37,2.24-.96,1.43-1.5,2.89-2.96,4.68-3.99l16.33-9.43c2.76-1.59,6.02-1.76,9.09-.9,1.16.33,2.42.41,3.72.21,3.51-.55,6.4-3.37,7.03-6.88.99-5.54-3.35-10.34-8.75-10.14Z"/>
  </g>
</svg>